<?xml version="1.0" standalone="no"?>
<!DOCTYPE svg PUBLIC "-//W3C//DTD SVG 20010904//EN"
 "http://www.w3.org/TR/2001/REC-SVG-20010904/DTD/svg10.dtd">
<svg version="1.0" xmlns="http://www.w3.org/2000/svg"
 width="225.000000pt" height="225.000000pt" viewBox="0 0 225.000000 225.000000"
 preserveAspectRatio="xMidYMid meet">

<g transform="translate(0.000000,225.000000) scale(0.100000,-0.100000)"
fill="#000000" stroke="none">
<path d="M1005 2104 c-16 -3 -67 -14 -113 -24 -353 -83 -633 -364 -724 -727
-31 -124 -31 -332 -1 -453 30 -119 73 -217 136 -313 113 -171 142 -178 171
-44 21 93 79 212 138 284 44 53 136 133 152 133 5 0 23 -11 40 -24 184 -140
458 -140 642 0 17 13 35 24 40 24 16 0 108 -80 152 -133 54 -66 119 -195 134
-269 12 -55 11 -59 -12 -84 -43 -45 -154 -122 -236 -163 -121 -61 -208 -82
-360 -88 -157 -7 -256 10 -384 64 -102 43 -144 48 -148 17 -4 -28 29 -51 128
-91 120 -49 218 -67 365 -68 193 0 344 41 505 137 437 262 603 819 378 1273
-55 111 -108 185 -134 185 -49 0 -46 -30 11 -119 99 -155 145 -312 145 -496 0
-119 -19 -228 -57 -325 -27 -69 -112 -220 -124 -220 -4 0 -10 16 -13 35 -14
71 -94 211 -166 288 -72 77 -165 147 -195 147 -10 0 -36 -16 -58 -36 -51 -47
-145 -90 -226 -104 -118 -21 -269 23 -359 104 -22 20 -47 36 -57 36 -30 0
-123 -70 -195 -147 -72 -77 -152 -217 -166 -288 -3 -19 -9 -35 -13 -35 -12 0
-97 151 -124 220 -78 200 -77 456 4 660 68 169 209 339 359 432 248 154 553
182 822 76 78 -31 103 -31 115 -2 13 34 -72 78 -222 115 -78 20 -285 33 -350
23z"/>
<path d="M1006 1770 c-139 -49 -226 -150 -256 -294 -33 -159 52 -330 204 -409
58 -30 67 -32 171 -32 104 0 113 2 171 32 152 79 237 250 204 410 -26 125 -94
214 -206 269 -97 48 -196 56 -288 24z m257 -90 c55 -28 106 -80 139 -142 33
-62 33 -193 0 -259 -30 -61 -81 -113 -145 -146 -71 -38 -188 -39 -260 -4 -200
98 -238 363 -72 509 64 56 112 72 210 69 62 -2 91 -8 128 -27z"/>
</g>
</svg>
